<svg width="22" height="22" viewBox="0 0 22 22" fill="none" xmlns="http://www.w3.org/2000/svg">
<path d="M19.7656 2.2344L9.75388 12.2461M2.28248 8.5912L19.47 2.08616C19.532 2.06244 19.5995 2.05719 19.6644 2.07103C19.7294 2.08487 19.7889 2.11722 19.8358 2.16416C19.8828 2.2111 19.9151 2.27063 19.929 2.33555C19.9428 2.40048 19.9376 2.46802 19.9138 2.53003L13.4088 19.7175C13.3829 19.7828 13.3377 19.8386 13.2792 19.8774C13.2206 19.9162 13.1516 19.9361 13.0815 19.9345C13.0113 19.9329 12.9432 19.9099 12.8865 19.8685C12.8298 19.8271 12.7872 19.7693 12.7643 19.7029L9.86818 12.5662C9.83442 12.4651 9.77759 12.3732 9.7022 12.2978C9.6268 12.2224 9.5349 12.1656 9.43377 12.1318L2.29709 9.23831C2.22985 9.21594 2.17118 9.17334 2.12909 9.11634C2.087 9.05934 2.06355 8.99073 2.06195 8.9199C2.06035 8.84906 2.08068 8.77946 2.12015 8.72062C2.15963 8.66178 2.21632 8.61658 2.28248 8.5912V8.5912Z" stroke="black" stroke-width="1.375" stroke-linecap="round" stroke-linejoin="round"/>
</svg>
